<svg width="173" height="45" viewBox="0 0 173 45" fill="none" xmlns="http://www.w3.org/2000/svg">
<path d="M40.5404 21.8266C40.5404 21.1589 40.4691 20.499 40.3242 19.8469C40.3175 19.7728 40.3169 19.6981 40.3029 19.6251C39.867 17.3258 38.969 15.222 37.6189 13.3125C36.8612 12.242 36.0008 11.2626 34.9849 10.4274C34.918 10.3634 34.8546 10.2955 34.7838 10.237C31.9718 7.91867 28.7486 6.6657 25.1043 6.51462C24.0861 6.4725 23.0701 6.51743 22.0654 6.71175C21.9817 6.71849 21.8969 6.71849 21.8149 6.73366C19.6695 7.13858 17.6538 7.88105 15.8325 9.09976C11.9321 11.709 9.51877 15.3197 8.72688 19.948C8.19335 23.0667 8.60333 26.0921 9.92482 28.9879C12.9216 35.5543 20.116 39.8889 27.9085 38.0917C34.1559 36.6506 38.1754 32.6811 40.0305 26.5454C40.4944 25.011 40.6196 23.4267 40.5404 21.8266ZM38.8595 26.2084C37.1617 31.6741 33.6443 35.4077 28.0562 36.768C21.8289 38.2832 16.6777 36.2496 12.734 31.2377C10.6903 28.6408 9.65749 25.6406 9.71814 22.3225C9.79396 18.1974 11.4041 14.7132 14.3571 11.8624C16.3576 9.93096 18.7366 8.65945 21.4622 8.05852C21.4976 8.05065 21.5301 8.03156 21.5644 8.01752C21.5801 8.03212 21.5964 8.04335 21.6133 8.05178C21.6284 8.03268 21.6447 8.0164 21.6621 8.00404C22.3327 7.91306 23.0005 7.79624 23.6778 7.75974C27.5299 7.55531 30.9311 8.71224 33.9156 11.1396C34.8776 11.9219 35.733 12.816 36.4518 13.8134C37.9334 15.8712 38.9494 18.1368 39.2605 20.6849C39.3728 21.6014 39.3874 22.5186 39.3605 23.4385H39.3588C39.3588 23.4385 39.3537 23.4413 39.3509 23.4435C39.3537 23.4475 39.3565 23.4514 39.3599 23.4548C39.2582 24.3848 39.1381 25.3126 38.8595 26.2084Z" fill="white"/>
<path d="M36.9876 22.3248C32.9041 18.2733 28.8183 14.224 24.7387 10.1685C24.5814 10.0124 24.5039 9.98544 24.3298 10.1595C21.3459 13.1412 18.3542 16.115 15.3636 19.0904C14.2836 20.1648 13.2019 21.2381 12.1208 22.3119C11.9921 22.3933 11.8866 22.4781 12.0747 22.6084C12.2404 22.7662 12.4061 22.9235 12.5717 23.0813C12.647 23.1633 12.7189 23.2487 12.7975 23.3273C16.6289 27.1384 20.4631 30.9479 24.2894 34.7652C24.4781 34.9534 24.5691 34.991 24.7808 34.7787C26.9722 32.5805 29.1788 30.397 31.3787 28.2066C32.2857 27.3036 33.1854 26.3937 34.0885 25.4867C35.0759 24.5179 36.0615 23.5474 37.0522 22.5826C37.1977 22.4405 37.0556 22.3927 36.9876 22.3248ZM25.1436 32.4823V29.9022C25.1425 28.9761 25.1425 28.0494 25.1414 27.1233V27.1025C25.1408 26.6234 25.1408 26.1449 25.1397 25.6664V25.6462C25.1391 25.1144 25.1385 24.5825 25.1374 24.0507V24.045C25.1374 23.8311 25.1369 23.6176 25.1363 23.4037V23.3806C25.1363 23.2397 25.1425 23.1549 25.3463 23.1554C27.3418 23.1616 29.3372 23.1627 31.3321 23.1633H31.3489C32.3402 23.1633 33.3315 23.1633 34.3227 23.1639C34.3575 23.1639 34.3924 23.17 34.4901 23.1785C31.3894 26.3089 28.2994 29.3799 25.1436 32.4823ZM25.1459 12.5582C25.2705 12.5958 25.3362 12.6874 25.4115 12.761C26.4342 13.7629 27.4552 14.7671 28.4774 15.7696C28.5437 15.8347 28.6155 15.8937 28.6846 15.9555C28.7178 15.988 28.7509 16.02 28.784 16.0521C28.9037 16.2026 29.0379 16.339 29.1923 16.4542C29.2109 16.5036 29.2446 16.5379 29.2945 16.5553C29.3198 16.612 29.3603 16.653 29.4175 16.6766C29.8758 17.1416 30.3296 17.6106 30.7924 18.0711C31.7915 19.064 32.7951 20.053 33.7965 21.0432C33.8184 21.0993 33.8571 21.1392 33.9133 21.1611C33.9318 21.2139 33.9672 21.2499 34.02 21.2684C34.0419 21.3251 34.0807 21.3644 34.1374 21.3863C34.1565 21.4386 34.1919 21.4739 34.2441 21.493C34.3059 21.5711 34.3677 21.6486 34.4283 21.725C34.3688 21.7997 34.298 21.7677 34.2385 21.7677C31.3096 21.7682 28.3802 21.7643 25.4514 21.7705C25.22 21.771 25.1357 21.7385 25.1369 21.4734C25.1414 19.9896 25.1419 18.5052 25.1408 17.0214V17.0057C25.1447 16.8018 25.1492 16.6002 25.1593 16.3963C25.1683 16.2059 25.1537 16.0133 25.1402 15.8201V15.8049C25.1391 14.7744 25.1374 13.7444 25.1369 12.7138C25.1369 12.6689 25.1419 12.6234 25.1459 12.5582ZM23.8058 12.6621C23.8406 12.7267 23.853 12.8008 23.8496 12.8896C23.8479 12.9328 23.8451 12.9912 23.8592 13.0362V13.6601C23.8171 13.7286 23.8491 13.8269 23.8491 13.9011C23.8429 16.4463 23.844 18.9916 23.844 21.5368C23.844 21.5784 23.8463 21.6194 23.8513 21.6587C23.8339 21.7306 23.7834 21.7733 23.6379 21.7727C20.7107 21.7637 17.7836 21.7665 14.8558 21.7665H14.643C17.7005 18.6962 20.7141 15.6853 23.8058 12.6621ZM23.8603 32.2801C23.8603 32.3048 23.8519 32.3289 23.839 32.4036C20.7253 29.3546 17.6769 26.2915 14.5902 23.161H16.2167C18.6765 23.161 21.137 23.1622 23.5975 23.1594C23.7626 23.1594 23.867 23.1526 23.8665 23.3834C23.8575 26.3488 23.8609 29.3142 23.8603 32.2801Z" fill="white"/>
<path d="M20.08 32.0403C19.4724 32.0425 18.8641 32.0464 18.2565 32.033C16.4042 31.9908 15.0743 30.6469 15.0513 28.7975C15.044 28.1898 15.049 27.5821 15.0468 26.9739C15.0468 26.8829 15.0648 26.7863 14.9873 26.7105C14.629 26.3612 14.2723 26.0113 13.873 25.6204C13.9224 26.8037 13.8449 27.9258 13.9202 29.0474C14.0769 31.3731 15.8263 33.0939 18.1537 33.1663C19.2095 33.1989 20.2671 33.1759 21.324 33.177C21.3656 33.177 21.4189 33.1927 21.4459 33.1242C21.11 32.8069 20.7691 32.4896 20.4344 32.1655C20.3316 32.0655 20.2182 32.0397 20.08 32.0403Z" fill="white"/>
<path d="M29.0154 12.9643C29.6051 12.9575 30.1943 12.9547 30.7834 12.9665C32.4671 12.9991 33.8611 14.2616 34.0442 15.9369C34.1172 16.6069 34.0576 17.2831 34.0678 17.956C34.0689 18.0481 34.0369 18.1497 34.1003 18.2289C34.4328 18.6389 34.8203 18.9938 35.2185 19.3521C35.2039 18.116 35.3303 16.8911 35.1455 15.6763C34.8473 13.7118 33.3214 12.1454 31.4433 11.8978C30.1898 11.7321 28.9267 11.873 27.6681 11.8202C27.991 12.1623 28.2977 12.4779 28.5931 12.8031C28.7121 12.9339 28.8464 12.9665 29.0154 12.9643Z" fill="white"/>
<path d="M14.9002 18.3261C15.0131 18.2098 15.0485 18.0834 15.0457 17.9239C15.0361 17.391 15.0356 16.858 15.0395 16.325C15.0547 14.4133 16.4492 13.0013 18.3626 12.966C18.9422 12.9558 19.5218 12.9676 20.1014 12.9671C20.1845 12.9671 20.3002 12.9873 20.3457 12.9429C20.7107 12.5807 21.0629 12.2061 21.4111 11.8422C20.3086 11.8422 19.1949 11.795 18.0863 11.8523C15.8915 11.9663 14.1583 13.6579 13.9303 15.8459C13.8101 17.0023 13.909 18.1626 13.9252 19.3555C14.2499 19.0118 14.5711 18.6653 14.9002 18.3261Z" fill="white"/>
<path d="M35.2118 27.5232C35.2213 26.9031 35.214 26.2831 35.214 25.5929C34.858 25.9596 34.5232 26.25 34.2424 26.5948C34.0801 26.6925 34.0414 26.8397 34.0408 27.0228C34.0397 27.7804 34.1127 28.5436 34.0099 29.2945C33.7976 30.8463 32.5373 31.965 30.9552 32.0302C30.292 32.0577 29.627 32.0358 28.9626 32.0369C28.8615 32.0375 28.7599 32.0195 28.6751 32.1077C28.3353 32.4598 27.991 32.808 27.6164 33.1905C28.8868 33.159 30.119 33.2388 31.3495 33.1365C31.5163 33.1231 31.6831 33.0882 31.8465 33.0512C33.6825 32.6328 35.1343 30.9153 35.1562 29.1389C35.1668 29.1131 35.1781 29.0884 35.1781 29.0592V29.012C35.2539 28.5178 35.2045 28.0191 35.2118 27.5232Z" fill="white"/>
<path d="M155.376 30.3537V13.9634H159.121V16.6951H159.292C159.59 15.749 160.103 15.0198 160.828 14.5076C161.561 13.9883 162.397 13.7287 163.336 13.7287C163.549 13.7287 163.788 13.7394 164.051 13.7607C164.321 13.7749 164.545 13.7998 164.723 13.8354V17.3887C164.559 17.3318 164.3 17.282 163.944 17.2394C163.596 17.1896 163.258 17.1647 162.93 17.1647C162.226 17.1647 161.593 17.3176 161.031 17.6235C160.476 17.9223 160.039 18.3384 159.719 18.872C159.398 19.4055 159.238 20.0209 159.238 20.718V30.3537H155.376Z" fill="white"/>
<path d="M145.42 30.6738C143.777 30.6738 142.358 30.3323 141.163 29.6494C139.975 28.9594 139.061 27.9848 138.42 26.7256C137.78 25.4594 137.46 23.969 137.46 22.2546C137.46 20.5686 137.78 19.0889 138.42 17.8156C139.068 16.5351 139.971 15.5392 141.131 14.8278C142.29 14.1093 143.653 13.75 145.218 13.75C146.228 13.75 147.181 13.9136 148.077 14.2409C148.981 14.561 149.778 15.059 150.468 15.7348C151.165 16.4106 151.713 17.2714 152.111 18.3171C152.509 19.3557 152.709 20.5935 152.709 22.0305V23.215H139.274V20.6113H149.006C148.999 19.8715 148.839 19.2134 148.526 18.6372C148.213 18.0539 147.775 17.595 147.213 17.2607C146.658 16.9263 146.011 16.7592 145.271 16.7592C144.481 16.7592 143.788 16.9512 143.19 17.3354C142.593 17.7124 142.127 18.2104 141.792 18.8293C141.465 19.4411 141.298 20.1133 141.291 20.8461V23.1189C141.291 24.0722 141.465 24.8903 141.814 25.5732C142.162 26.249 142.65 26.7683 143.276 27.1311C143.902 27.4868 144.634 27.6647 145.474 27.6647C146.036 27.6647 146.544 27.5864 147 27.4299C147.455 27.2663 147.85 27.028 148.184 26.715C148.519 26.402 148.771 26.0143 148.942 25.5519L152.549 25.9573C152.321 26.9106 151.887 27.7429 151.247 28.4543C150.614 29.1586 149.803 29.7063 148.814 30.0976C147.825 30.4817 146.694 30.6738 145.42 30.6738Z" fill="white"/>
<path d="M132.43 30.5884C131.782 30.5884 131.227 30.3608 130.765 29.9055C130.303 29.4502 130.075 28.8954 130.082 28.2409C130.075 27.6006 130.303 27.0529 130.765 26.5976C131.227 26.1423 131.782 25.9147 132.43 25.9147C133.056 25.9147 133.6 26.1423 134.062 26.5976C134.532 27.0529 134.77 27.6006 134.777 28.2409C134.77 28.6748 134.656 29.0696 134.436 29.4253C134.222 29.781 133.938 30.0656 133.582 30.279C133.233 30.4853 132.849 30.5884 132.43 30.5884Z" fill="white"/>
<path d="M116.203 20.75V30.3537H112.34V13.9634H116.032V16.7485H116.224C116.601 15.8308 117.202 15.1017 118.028 14.561C118.86 14.0204 119.888 13.75 121.111 13.75C122.242 13.75 123.228 13.9919 124.067 14.4756C124.914 14.9594 125.568 15.6601 126.031 16.5778C126.5 17.4955 126.731 18.6088 126.724 19.9177V30.3537H122.861V20.5153C122.861 19.4197 122.577 18.5625 122.008 17.9436C121.446 17.3247 120.667 17.0153 119.671 17.0153C118.995 17.0153 118.394 17.1647 117.867 17.4634C117.348 17.7551 116.939 18.1784 116.64 18.7333C116.349 19.2881 116.203 19.9604 116.203 20.75Z" fill="white"/>
<path d="M98.4928 20.75V30.3537H94.63V13.9634H98.3221V16.7485H98.5142C98.8912 15.8308 99.4923 15.1017 100.318 14.561C101.15 14.0204 102.178 13.75 103.401 13.75C104.532 13.75 105.518 13.9919 106.357 14.4756C107.204 14.9594 107.858 15.6601 108.321 16.5778C108.79 17.4955 109.021 18.6088 109.014 19.9177V30.3537H105.151V20.5153C105.151 19.4197 104.867 18.5625 104.298 17.9436C103.736 17.3247 102.957 17.0153 101.961 17.0153C101.285 17.0153 100.684 17.1647 100.157 17.4634C99.6382 17.7551 99.2291 18.1784 98.9303 18.7333C98.6387 19.2881 98.4928 19.9604 98.4928 20.75Z" fill="white"/>
<path d="M82.6929 30.6845C81.6543 30.6845 80.7188 30.4995 79.8865 30.1296C79.0613 29.7526 78.4068 29.1977 77.9231 28.465C77.4465 27.7322 77.2081 26.8288 77.2081 25.7546C77.2081 24.8298 77.3789 24.0651 77.7203 23.4604C78.0618 22.8557 78.5277 22.372 79.1182 22.0092C79.7086 21.6464 80.3738 21.3725 81.1136 21.1875C81.8606 20.9955 82.6324 20.8567 83.4292 20.7714C84.3895 20.6718 85.1685 20.5829 85.7661 20.5046C86.3636 20.4192 86.7976 20.2912 87.0679 20.1205C87.3453 19.9426 87.4841 19.6687 87.4841 19.2988V19.2348C87.4841 18.4309 87.2457 17.8085 86.7691 17.3674C86.2925 16.9263 85.606 16.7058 84.7097 16.7058C83.7635 16.7058 83.013 16.9121 82.4581 17.3247C81.9104 17.7373 81.5405 18.2246 81.3484 18.7866L77.7417 18.2744C78.0262 17.2785 78.4957 16.4462 79.1502 15.7775C79.8047 15.1017 80.605 14.5966 81.5511 14.2622C82.4973 13.9208 83.543 13.75 84.6883 13.75C85.478 13.75 86.264 13.8425 87.0466 14.0275C87.8291 14.2124 88.544 14.5183 89.1914 14.9451C89.8387 15.3649 90.358 15.9375 90.7493 16.6631C91.1477 17.3887 91.3469 18.2958 91.3469 19.3842V30.3537H87.6334V28.1022H87.5054C87.2706 28.5574 86.9398 28.9843 86.513 29.3826C86.0933 29.7739 85.5633 30.0905 84.9231 30.3323C84.2899 30.5671 83.5466 30.6845 82.6929 30.6845ZM83.6959 27.8461C84.4714 27.8461 85.1436 27.6931 85.7127 27.3872C86.2818 27.0742 86.7193 26.6616 87.0252 26.1494C87.3382 25.6372 87.4947 25.0788 87.4947 24.4741V22.5427C87.3738 22.6423 87.1675 22.7348 86.8758 22.8201C86.5913 22.9055 86.2711 22.9802 85.9155 23.0442C85.5598 23.1083 85.2076 23.1652 84.8591 23.215C84.5105 23.2648 84.2081 23.3074 83.952 23.343C83.3758 23.4213 82.8601 23.5493 82.4048 23.7272C81.9495 23.905 81.5903 24.154 81.327 24.4741C81.0638 24.7871 80.9322 25.1926 80.9322 25.6906C80.9322 26.402 81.1919 26.9391 81.7112 27.3019C82.2305 27.6647 82.8921 27.8461 83.6959 27.8461Z" fill="white"/>
<path d="M74.6052 8.50003V30.3537H70.7424V8.50003H74.6052Z" fill="white"/>
<path d="M52.5629 36.5V13.9634H56.3617V16.6738H56.5858C56.785 16.2754 57.066 15.8522 57.4288 15.404C57.7916 14.9487 58.2824 14.561 58.9013 14.2409C59.5202 13.9136 60.3099 13.75 61.2702 13.75C62.5365 13.75 63.6783 14.0737 64.6955 14.7211C65.7199 15.3613 66.5309 16.311 67.1285 17.5701C67.7331 18.8222 68.0355 20.3588 68.0355 22.1799C68.0355 23.9797 67.7402 25.5092 67.1498 26.7683C66.5594 28.0275 65.7555 28.9878 64.7382 29.6494C63.7209 30.311 62.5685 30.6418 61.2809 30.6418C60.3419 30.6418 59.5629 30.4853 58.944 30.1723C58.3251 29.8593 57.8271 29.4822 57.4501 29.0412C57.0802 28.593 56.7921 28.1697 56.5858 27.7714H56.4257V36.5H52.5629ZM56.351 22.1586C56.351 23.2185 56.5004 24.1469 56.7992 24.9436C57.1051 25.7404 57.5426 26.3628 58.1117 26.811C58.6879 27.2521 59.3851 27.4726 60.2032 27.4726C61.0568 27.4726 61.7718 27.2449 62.348 26.7897C62.9242 26.3273 63.3581 25.6977 63.6498 24.9009C63.9486 24.0971 64.098 23.183 64.098 22.1586C64.098 21.1413 63.9521 20.2378 63.6605 19.4482C63.3688 18.6586 62.9349 18.0397 62.3586 17.5915C61.7824 17.1433 61.0639 16.9192 60.2032 16.9192C59.378 16.9192 58.6772 17.1362 58.101 17.5701C57.5248 18.0041 57.0873 18.6123 56.7885 19.3948C56.4969 20.1774 56.351 21.0986 56.351 22.1586Z" fill="white"/>
</svg>
